<svg xmlns="http://www.w3.org/2000/svg" viewBox="0 0 38 38"><title>face_2</title><g id="Layer_2" data-name="Layer 2"><g id="Layer_1-2" data-name="Layer 1"><path fill="#4BAAF3" d="M19,2A17,17,0,1,1,2,19,17,17,0,0,1,19,2m0-2A19,19,0,1,0,38,19,19,19,0,0,0,19,0Z"/><circle fill="#4BAAF3" cx="12.03" cy="14.02" r="1.98"/><circle fill="#4BAAF3" cx="25.97" cy="14.02" r="1.98"/><path fill="#4BAAF3" d="M19,28.87a7.89,7.89,0,0,1-5.79-2.51L14.66,25a5.94,5.94,0,0,0,8.68,0l1.46,1.37A7.89,7.89,0,0,1,19,28.87Z"/></g></g></svg>